<svg width="188" height="188" viewBox="0 0 188 188" fill="none" xmlns="http://www.w3.org/2000/svg">
<g filter="url(#filter0_d_2_3910)">
<circle cx="94" cy="86" r="30" fill="#CB90FC"/>
<path d="M88.5805 73.1806C88.9465 71.6983 91.0537 71.6983 91.4197 73.1806C92.9818 79.5079 97.9221 84.4482 104.25 86.0102C105.732 86.3761 105.732 88.4834 104.25 88.8494C97.9221 90.4113 92.9818 95.3516 91.4197 101.679C91.0537 103.161 88.9465 103.161 88.5805 101.679C87.0185 95.3516 82.0781 90.4113 75.7507 88.8494C74.2683 88.4834 74.2683 86.3761 75.7507 86.0102C82.0781 84.4482 87.0185 79.5079 88.5805 73.1806Z" fill="url(#paint0_linear_2_3910)"/>
<path d="M104.187 66.899C104.335 66.299 105.188 66.299 105.336 66.899C105.968 69.4601 107.968 71.4597 110.529 72.0919C111.129 72.24 111.129 73.093 110.529 73.2411C107.968 73.8733 105.968 75.873 105.336 78.434C105.188 79.034 104.335 79.034 104.187 78.434C103.554 75.873 101.555 73.8733 98.9935 73.2411C98.3935 73.093 98.3935 72.24 98.9935 72.0919C101.555 71.4597 103.554 69.4601 104.187 66.899Z" fill="url(#paint1_linear_2_3910)"/>
</g>
<defs>
<filter id="filter0_d_2_3910" x="0" y="0" width="188" height="188" filterUnits="userSpaceOnUse" color-interpolation-filters="sRGB">
<feFlood flood-opacity="0" result="BackgroundImageFix"/>
<feColorMatrix in="SourceAlpha" type="matrix" values="0 0 0 0 0 0 0 0 0 0 0 0 0 0 0 0 0 0 127 0" result="hardAlpha"/>
<feOffset dy="8"/>
<feGaussianBlur stdDeviation="32"/>
<feComposite in2="hardAlpha" operator="out"/>
<feColorMatrix type="matrix" values="0 0 0 0 0.0588235 0 0 0 0 0.133333 0 0 0 0 0.262745 0 0 0 0.2 0"/>
<feBlend mode="normal" in2="BackgroundImageFix" result="effect1_dropShadow_2_3910"/>
<feBlend mode="normal" in="SourceGraphic" in2="effect1_dropShadow_2_3910" result="shape"/>
</filter>
<linearGradient id="paint0_linear_2_3910" x1="90.0001" y1="67.4304" x2="90.0001" y2="107.429" gradientUnits="userSpaceOnUse">
<stop offset="1" stop-color="#45185A"/>
</linearGradient>
<linearGradient id="paint1_linear_2_3910" x1="104.761" y1="64.5715" x2="104.761" y2="80.7615" gradientUnits="userSpaceOnUse">
<stop offset="1" stop-color="#45185A"/>
</linearGradient>
</defs>
</svg>
