<svg width="14" height="14" viewBox="0 0 14 14" fill="none" xmlns="http://www.w3.org/2000/svg">
<g clip-path="url(#clip0_2_2398)">
<path d="M7.58341 11.6667C8.35668 11.6658 9.09801 11.3582 9.64479 10.8114C10.1916 10.2647 10.4992 9.52333 10.5001 8.75006V3.64181C10.501 3.33519 10.441 3.03143 10.3237 2.74816C10.2063 2.46488 10.0339 2.20771 9.81641 1.99156L8.50858 0.683728C8.29243 0.466246 8.03526 0.29383 7.75199 0.176473C7.46871 0.0591168 7.16495 -0.00084564 6.85833 6.16423e-05H4.08341C3.31015 0.000987893 2.56882 0.308576 2.02204 0.855357C1.47526 1.40214 1.16767 2.14346 1.16675 2.91673V8.75006C1.16767 9.52333 1.47526 10.2647 2.02204 10.8114C2.56882 11.3582 3.31015 11.6658 4.08341 11.6667H7.58341ZM2.33341 8.75006V2.91673C2.33341 2.4526 2.51779 2.00748 2.84598 1.67929C3.17417 1.3511 3.61929 1.16673 4.08341 1.16673C4.08341 1.16673 6.95283 1.1749 7.00008 1.18073V2.3334C7.00008 2.64281 7.123 2.93956 7.34179 3.15835C7.56058 3.37715 7.85733 3.50006 8.16675 3.50006H9.31941C9.32525 3.54731 9.33341 8.75006 9.33341 8.75006C9.33341 9.21419 9.14904 9.65931 8.82085 9.9875C8.49266 10.3157 8.04754 10.5001 7.58341 10.5001H4.08341C3.61929 10.5001 3.17417 10.3157 2.84598 9.9875C2.51779 9.65931 2.33341 9.21419 2.33341 8.75006ZM12.8334 4.66673V11.0834C12.8325 11.8567 12.5249 12.598 11.9781 13.1448C11.4313 13.6915 10.69 13.9991 9.91675 14.0001H4.66675C4.51204 14.0001 4.36367 13.9386 4.25427 13.8292C4.14487 13.7198 4.08341 13.5714 4.08341 13.4167C4.08341 13.262 4.14487 13.1136 4.25427 13.0042C4.36367 12.8949 4.51204 12.8334 4.66675 12.8334H9.91675C10.3809 12.8334 10.826 12.649 11.1542 12.3208C11.4824 11.9926 11.6667 11.5475 11.6667 11.0834V4.66673C11.6667 4.51202 11.7282 4.36365 11.8376 4.25425C11.947 4.14485 12.0954 4.0834 12.2501 4.0834C12.4048 4.0834 12.5532 4.14485 12.6626 4.25425C12.772 4.36365 12.8334 4.51202 12.8334 4.66673Z" fill="#868E96"/>
</g>
<defs>
<clipPath id="clip0_2_2398">
<rect width="14" height="14" fill="white"/>
</clipPath>
</defs>
</svg>
