<svg width="14" height="14" viewBox="0 0 14 14" fill="none" xmlns="http://www.w3.org/2000/svg">
<g clip-path="url(#clip0_2_2399)">
<path d="M13.9714 7.175L13.5602 4.25833C13.4591 3.56412 13.1123 2.92921 12.5829 2.46894C12.0535 2.00866 11.3765 1.75357 10.675 1.75H2.91667C2.1434 1.75092 1.40208 2.05851 0.855295 2.60529C0.308515 3.15207 0.00092625 3.8934 0 4.66666L0 7.58333C0.00092625 8.35659 0.308515 9.09792 0.855295 9.6447C1.40208 10.1915 2.1434 10.4991 2.91667 10.5H4.49867L5.61517 12.7622C5.80286 13.1434 6.12136 13.4445 6.51255 13.6105C6.90375 13.7765 7.34159 13.7964 7.7462 13.6665C8.15081 13.5365 8.49524 13.2655 8.71667 12.9028C8.9381 12.5401 9.02177 12.1098 8.95242 11.6906L8.75642 10.5H11.0833C11.5009 10.5 11.9135 10.4104 12.2935 10.2372C12.6734 10.064 13.0117 9.8112 13.2855 9.49597C13.5593 9.18074 13.7622 8.8104 13.8805 8.40999C13.9989 8.00958 14.0299 7.58842 13.9714 7.175ZM2.91667 2.91666H4.08333V9.33333H2.91667C2.45254 9.33333 2.00742 9.14896 1.67923 8.82077C1.35104 8.49258 1.16667 8.04746 1.16667 7.58333V4.66666C1.16667 4.20253 1.35104 3.75741 1.67923 3.42923C2.00742 3.10104 2.45254 2.91666 2.91667 2.91666ZM12.404 8.73133C12.2397 8.92031 12.0369 9.07185 11.809 9.1757C11.5812 9.27955 11.3337 9.33331 11.0833 9.33333H8.06925C7.98464 9.33331 7.90104 9.3517 7.82425 9.38722C7.74745 9.42274 7.67931 9.47454 7.62453 9.53902C7.56976 9.60351 7.52967 9.67914 7.50704 9.76067C7.48441 9.8422 7.47979 9.92767 7.4935 10.0112L7.8015 11.8778C7.81629 11.9645 7.81178 12.0533 7.78829 12.138C7.76479 12.2227 7.7229 12.3012 7.66558 12.3678C7.59839 12.4403 7.51495 12.4957 7.42213 12.5296C7.32932 12.5635 7.22978 12.5749 7.13171 12.5628C7.03364 12.5508 6.93984 12.5156 6.85802 12.4602C6.7762 12.4048 6.70871 12.3307 6.66108 12.2442L5.38417 9.65883C5.35048 9.59417 5.30498 9.53639 5.25 9.4885V2.91666H10.675C11.0963 2.9182 11.5031 3.07109 11.8211 3.34745C12.1391 3.62382 12.3472 4.00526 12.4075 4.42225L12.8193 7.33891C12.8539 7.58721 12.8347 7.84003 12.763 8.08027C12.6914 8.3205 12.5689 8.54253 12.404 8.73133Z" fill="#868E96"/>
</g>
<defs>
<clipPath id="clip0_2_2399">
<rect width="14" height="14" fill="white"/>
</clipPath>
</defs>
</svg>
