<svg width="18" height="18" viewBox="0 0 18 18" fill="none" xmlns="http://www.w3.org/2000/svg">
<path d="M14.2006 6.68373C14.3678 6.34283 14.227 5.93093 13.8861 5.76371C13.5452 5.5965 13.1333 5.73729 12.9661 6.07818L11.6275 8.80714C11.2125 9.653 9.99304 9.61169 9.63631 8.73969C8.83042 6.76973 6.07542 6.67641 5.13807 8.58731L3.79943 11.3163C3.63221 11.6572 3.773 12.0691 4.11389 12.2363C4.45478 12.4035 4.86669 12.2627 5.03391 11.9218L6.37254 9.19286C6.78746 8.347 8.00696 8.38831 8.36369 9.26031C9.16958 11.2303 11.9246 11.3236 12.8619 9.41269L14.2006 6.68373Z" fill="#CB90FC"/>
<path fill-rule="evenodd" clip-rule="evenodd" d="M13.0916 0.175918C12.0446 0.0624867 10.725 0.0624926 9.04148 0.0625001H8.95852C7.27503 0.0624926 5.9554 0.0624867 4.90844 0.175918C3.84003 0.291672 2.97435 0.53213 2.23522 1.06914C1.78775 1.39424 1.39424 1.78775 1.06914 2.23522C0.53213 2.97435 0.291672 3.84003 0.175918 4.90844C0.0624867 5.95539 0.0624926 7.27503 0.0625001 8.95852V9.04148C0.0624926 10.725 0.0624867 12.0446 0.175918 13.0916C0.291672 14.16 0.53213 15.0257 1.06914 15.7648C1.39424 16.2122 1.78775 16.6058 2.23522 16.9309C2.97435 17.4679 3.84003 17.7083 4.90844 17.8241C5.95538 17.9375 7.27498 17.9375 8.95843 17.9375H9.0415C10.7249 17.9375 12.0446 17.9375 13.0916 17.8241C14.16 17.7083 15.0257 17.4679 15.7648 16.9309C16.2122 16.6058 16.6058 16.2122 16.9309 15.7648C17.4679 15.0257 17.7083 14.16 17.8241 13.0916C17.9375 12.0446 17.9375 10.725 17.9375 9.04157V8.9585C17.9375 7.27505 17.9375 5.95538 17.8241 4.90844C17.7083 3.84003 17.4679 2.97435 16.9309 2.23522C16.6058 1.78775 16.2122 1.39424 15.7648 1.06914C15.0257 0.53213 14.16 0.291672 13.0916 0.175918ZM3.04342 2.18154C3.50909 1.84321 4.10512 1.646 5.05654 1.54292C6.02083 1.43844 7.26606 1.4375 9 1.4375C10.7339 1.4375 11.9792 1.43844 12.9435 1.54292C13.8949 1.646 14.4909 1.84321 14.9566 2.18154C15.2873 2.42183 15.5782 2.71269 15.8185 3.04342C16.1568 3.50909 16.354 4.10512 16.4571 5.05654C16.5616 6.02083 16.5625 7.26606 16.5625 9C16.5625 10.7339 16.5616 11.9792 16.4571 12.9435C16.354 13.8949 16.1568 14.4909 15.8185 14.9566C15.5782 15.2873 15.2873 15.5782 14.9566 15.8185C14.4909 16.1568 13.8949 16.354 12.9435 16.4571C11.9792 16.5616 10.7339 16.5625 9 16.5625C7.26606 16.5625 6.02083 16.5616 5.05654 16.4571C4.10512 16.354 3.50909 16.1568 3.04342 15.8185C2.71269 15.5782 2.42183 15.2873 2.18154 14.9566C1.84321 14.4909 1.646 13.8949 1.54292 12.9435C1.43844 11.9792 1.4375 10.7339 1.4375 9C1.4375 7.26606 1.43844 6.02083 1.54292 5.05654C1.646 4.10512 1.84321 3.50909 2.18154 3.04342C2.42183 2.71268 2.71268 2.42183 3.04342 2.18154Z" fill="#CB90FC"/>
</svg>
