<svg width="18" height="20" viewBox="0 0 18 20" fill="none" xmlns="http://www.w3.org/2000/svg">
<path d="M5.33333 7.47908C4.95364 7.47908 4.64583 7.78689 4.64583 8.16658C4.64583 8.54628 4.95364 8.85408 5.33333 8.85408H12.6667C13.0464 8.85408 13.3542 8.54628 13.3542 8.16658C13.3542 7.78689 13.0464 7.47908 12.6667 7.47908H5.33333Z" fill="#45185A"/>
<path d="M5.33333 11.1458C4.95364 11.1458 4.64583 11.4536 4.64583 11.8333C4.64583 12.2129 4.95364 12.5208 5.33333 12.5208H12.6667C13.0464 12.5208 13.3542 12.2129 13.3542 11.8333C13.3542 11.4536 13.0464 11.1458 12.6667 11.1458H5.33333Z" fill="#45185A"/>
<path d="M9.91667 14.8124C9.53697 14.8124 9.22917 15.1202 9.22917 15.4999C9.22917 15.8796 9.53697 16.1874 9.91667 16.1874H12.6667C13.0464 16.1874 13.3542 15.8796 13.3542 15.4999C13.3542 15.1202 13.0464 14.8124 12.6667 14.8124H9.91667Z" fill="#45185A"/>
<path fill-rule="evenodd" clip-rule="evenodd" d="M15.2133 0.816457C14.5045 0.459 13.6814 0.29991 12.6964 0.222499C11.7197 0.145747 10.5175 0.145749 9.02795 0.145752H8.98131C7.67314 0.145752 6.58822 0.145752 5.6861 0.196831C4.78032 0.248118 4.00997 0.352699 3.34196 0.58319C2.93807 0.722547 2.57224 0.907532 2.23522 1.15239C1.78775 1.47749 1.39424 1.871 1.06914 2.31847C0.53213 3.0576 0.291672 3.92328 0.175918 4.99169C0.0624867 6.03865 0.0624926 7.35828 0.0625001 9.04177V10.9581C0.0624926 12.6416 0.0624867 13.9612 0.175918 15.0082C0.291672 16.0766 0.53213 16.9422 1.06914 17.6814C1.39424 18.1288 1.78775 18.5223 2.23522 18.8474C2.97435 19.3845 3.84003 19.6249 4.90844 19.7407C5.95538 19.8541 7.27498 19.8541 8.95843 19.8541H9.0415C10.7249 19.8541 12.0446 19.8541 13.0916 19.7407C14.16 19.6249 15.0257 19.3845 15.7648 18.8474C16.2122 18.5223 16.6058 18.1288 16.9309 17.6814C17.4679 16.9422 17.7083 16.0766 17.8241 15.0082C17.9375 13.9612 17.9375 12.6416 17.9375 10.9582V9.04175C17.9375 7.3583 17.9375 6.03863 17.8241 4.99169C17.7083 3.92328 17.4679 3.0576 16.9309 2.31847C16.6058 1.871 16.2122 1.47749 15.7648 1.15239C15.5901 1.02545 15.4068 0.914001 15.2133 0.816457ZM9 1.52075C10.5232 1.52075 11.672 1.52124 12.5886 1.59327C12.9877 1.62463 13.3299 1.66887 13.6284 1.72868C12.8783 2.46789 12.2756 3.0351 11.7368 3.45941C11.0314 4.01495 10.4907 4.27985 9.94308 4.36658C9.5393 4.43054 9.12797 4.43054 8.72419 4.36658C8.16087 4.27736 7.60496 3.99964 6.86941 3.41094C6.32258 2.97327 5.71001 2.39206 4.94757 1.6386C5.19391 1.60918 5.46452 1.58658 5.76383 1.56963C6.62279 1.521 7.66944 1.52075 9 1.52075ZM12.5875 4.53964C13.2871 3.9887 14.0624 3.23863 15.005 2.30051C15.3157 2.53371 15.59 2.81216 15.8185 3.12667C16.1568 3.59234 16.354 4.18837 16.4571 5.13979C16.5616 6.10408 16.5625 7.34931 16.5625 9.08325V10.9166C16.5625 12.6505 16.5616 13.8958 16.4571 14.86C16.354 15.8115 16.1568 16.4075 15.8185 16.8732C15.5782 17.2039 15.2873 17.4948 14.9566 17.735C14.4909 18.0734 13.8949 18.2706 12.9435 18.3737C11.9792 18.4781 10.7339 18.4791 9 18.4791C7.26606 18.4791 6.02083 18.4781 5.05654 18.3737C4.10512 18.2706 3.50909 18.0734 3.04342 17.735C2.71269 17.4948 2.42183 17.2039 2.18154 16.8732C1.84321 16.4075 1.646 15.8115 1.54292 14.86C1.43844 13.8958 1.4375 12.6505 1.4375 10.9166V9.08325C1.4375 7.34931 1.43844 6.10408 1.54292 5.13979C1.646 4.18837 1.84321 3.59234 2.18154 3.12667C2.42183 2.79594 2.71268 2.50508 3.04342 2.26479C3.15624 2.18282 3.27596 2.10968 3.4054 2.04438C4.43579 3.07321 5.26821 3.89057 6.01021 4.48444C6.8389 5.14769 7.61495 5.58304 8.5091 5.72465C9.05539 5.81118 9.61189 5.81118 10.1582 5.72465C11.0273 5.587 11.7848 5.17185 12.5875 4.53964Z" fill="#45185A"/>
</svg>
