<svg width="14" height="14" viewBox="0 0 14 14" fill="none" xmlns="http://www.w3.org/2000/svg">
<g clip-path="url(#clip0_2_2400)">
<path d="M13.2843 4.50414C13.0107 4.18891 12.6726 3.93614 12.2929 3.76293C11.9132 3.58973 11.5007 3.50014 11.0833 3.50023H8.75642L8.95242 2.30964C9.02177 1.89038 8.9381 1.46016 8.71667 1.09744C8.49524 0.734728 8.15081 0.463693 7.7462 0.333772C7.34158 0.203852 6.90375 0.223703 6.51255 0.389704C6.12136 0.555706 5.80286 0.856797 5.61517 1.23806L4.49867 3.50023H2.91667C2.1434 3.50115 1.40208 3.80874 0.855295 4.35552C0.308514 4.9023 0.00092625 5.64363 0 6.41689L0 9.33356C0.00092625 10.1068 0.308514 10.8482 0.855295 11.3949C1.40208 11.9417 2.1434 12.2493 2.91667 12.2502H10.675C11.377 12.2474 12.0547 11.9926 12.5847 11.5322C13.1147 11.0719 13.4619 10.4366 13.5631 9.74189L13.9743 6.82523C14.0322 6.41149 14.0006 5.99013 13.8815 5.58969C13.7625 5.18924 13.5588 4.81904 13.2843 4.50414ZM1.16667 9.33356V6.41689C1.16667 5.95276 1.35104 5.50765 1.67923 5.17946C2.00742 4.85127 2.45254 4.66689 2.91667 4.66689H4.08333V11.0836H2.91667C2.45254 11.0836 2.00742 10.8992 1.67923 10.571C1.35104 10.2428 1.16667 9.79769 1.16667 9.33356ZM12.8164 6.66131L12.4046 9.57798C12.3444 9.99447 12.1367 10.3755 11.8193 10.6518C11.5019 10.9281 11.0958 11.0813 10.675 11.0836H5.25V4.51173C5.30497 4.46383 5.35048 4.40606 5.38417 4.34139L6.66108 1.75431C6.70897 1.66794 6.77667 1.59416 6.85862 1.53904C6.94056 1.48392 7.03442 1.44903 7.13248 1.43724C7.23053 1.42546 7.32998 1.43711 7.42266 1.47123C7.51534 1.50536 7.59859 1.561 7.66558 1.63356C7.72289 1.7002 7.76479 1.77868 7.78829 1.86338C7.81178 1.94807 7.81629 2.03692 7.8015 2.12356L7.4935 3.99023C7.47998 4.07363 7.48474 4.15898 7.50745 4.24036C7.53017 4.32175 7.57029 4.39723 7.62504 4.46158C7.6798 4.52593 7.74788 4.57762 7.82458 4.61307C7.90127 4.64852 7.98476 4.66688 8.06925 4.66689H11.0833C11.3338 4.66686 11.5814 4.7206 11.8093 4.82448C12.0372 4.92836 12.2402 5.07996 12.4045 5.26903C12.5688 5.4581 12.6906 5.68024 12.7617 5.92044C12.8327 6.16063 12.8514 6.41328 12.8164 6.66131Z" fill="#868E96"/>
</g>
<defs>
<clipPath id="clip0_2_2400">
<rect width="14" height="14" fill="white"/>
</clipPath>
</defs>
</svg>
